<?xml version="1.0" encoding="UTF-8" ?>
<!DOCTYPE svg PUBLIC "-//W3C//DTD SVG 1.1//EN" "http://www.w3.org/Graphics/SVG/1.1/DTD/svg11.dtd">
<svg width="686pt" height="164pt" viewBox="0 0 686 164" version="1.1" xmlns="http://www.w3.org/2000/svg">
<path fill="#ffffff" d=" M 0.00 0.00 L 686.00 0.00 L 686.00 164.00 L 0.00 164.00 L 0.00 0.00 Z" />
<path fill="#444444" d=" M 13.94 14.87 C 44.73 14.87 75.52 14.86 106.31 14.88 C 106.28 27.50 106.38 40.12 106.24 52.75 C 98.83 52.75 91.42 52.74 84.01 52.75 C 83.99 46.04 84.01 39.33 84.00 32.63 C 75.25 32.63 66.50 32.62 57.75 32.63 C 57.75 45.00 57.74 57.37 57.75 69.75 C 73.37 69.75 89.00 69.75 104.62 69.75 C 104.63 75.62 104.64 81.49 104.67 87.37 C 89.03 87.40 73.39 87.36 57.75 87.39 C 57.75 101.38 57.74 115.38 57.75 129.37 C 62.96 129.38 68.17 129.36 73.38 129.38 C 73.43 135.25 73.37 141.12 73.38 147.00 C 53.54 147.00 33.71 147.00 13.87 147.00 C 13.86 141.12 13.92 135.25 13.88 129.37 C 17.71 129.37 21.54 129.37 25.37 129.37 C 25.38 97.12 25.38 64.88 25.37 32.63 C 21.55 32.62 17.73 32.62 13.91 32.63 C 13.96 26.71 13.92 20.79 13.94 14.87 Z" />
<path fill="#444444" d=" M 628.44 14.88 C 638.18 14.87 647.93 14.86 657.68 14.88 C 657.70 21.96 657.66 29.04 657.68 36.11 C 647.93 36.14 638.18 36.12 628.44 36.12 C 628.42 29.04 628.45 21.96 628.44 14.88 Z" />
<path fill="#444444" d=" M 123.60 70.59 C 129.65 58.89 141.74 50.65 154.86 49.34 C 166.44 48.27 179.22 49.95 188.36 57.76 C 195.35 63.10 199.75 71.17 202.25 79.47 C 204.34 87.10 204.54 95.12 203.99 102.97 C 184.78 103.04 165.57 102.98 146.37 103.00 C 146.80 110.23 147.05 117.85 150.54 124.38 C 152.59 128.15 156.62 130.57 160.88 130.85 C 166.95 131.50 174.15 130.22 177.78 124.78 C 179.76 122.20 179.75 118.84 179.83 115.75 C 186.92 115.75 194.01 115.74 201.10 115.75 C 201.47 123.16 199.43 130.80 194.20 136.25 C 186.59 144.62 174.96 147.99 163.96 148.52 C 152.68 149.32 140.75 146.44 132.11 138.89 C 124.74 132.16 120.13 122.80 118.42 113.04 C 115.95 98.85 116.68 83.49 123.60 70.59 Z" />
<path fill="#444444" d=" M 273.90 50.07 C 281.73 48.50 290.52 48.19 297.62 52.40 C 303.24 55.96 305.96 62.71 306.49 69.12 C 307.01 75.73 306.66 82.38 306.80 89.00 C 298.67 88.98 290.54 89.04 282.41 88.97 C 282.34 84.33 282.55 79.67 282.26 75.04 C 282.27 71.72 279.15 69.34 276.05 69.15 C 268.72 68.31 261.70 71.61 255.86 75.74 C 255.95 93.87 255.90 111.99 255.88 130.12 C 260.54 130.13 265.21 130.12 269.87 130.13 C 269.88 135.75 269.87 141.37 269.88 147.00 C 251.67 147.00 233.46 147.00 215.25 146.99 C 215.25 141.37 215.25 135.75 215.25 130.13 C 219.04 130.12 222.83 130.12 226.62 130.12 C 226.68 109.21 226.64 88.29 226.62 67.38 C 222.83 67.38 219.04 67.38 215.25 67.38 C 215.25 61.75 215.24 56.12 215.26 50.49 C 228.34 50.51 241.41 50.50 254.49 50.50 C 254.49 53.47 254.50 56.43 254.56 59.39 C 260.73 55.77 266.74 51.51 273.90 50.07 Z" />
<path fill="#444444" d=" M 375.78 49.95 C 383.63 48.50 392.44 48.26 399.46 52.64 C 405.15 56.39 407.44 63.41 407.97 69.89 C 408.29 76.25 408.08 82.63 408.17 89.00 C 400.05 89.00 391.93 89.01 383.80 88.99 C 383.68 84.19 383.97 79.36 383.58 74.57 C 383.37 71.73 380.82 69.60 378.11 69.26 C 370.63 68.09 363.36 71.44 357.39 75.67 C 357.37 93.81 357.38 111.96 357.38 130.11 C 362.00 130.13 366.62 130.12 371.25 130.12 C 371.31 135.75 371.24 141.37 371.25 147.00 C 353.04 147.00 334.83 147.00 316.62 147.00 C 316.61 141.37 316.67 135.75 316.62 130.13 C 320.41 130.12 324.20 130.12 327.99 130.12 C 328.06 109.21 328.03 88.29 327.99 67.38 C 324.20 67.38 320.41 67.38 316.62 67.37 C 316.64 61.75 316.63 56.13 316.62 50.51 C 329.70 50.50 342.79 50.50 355.87 50.50 C 355.87 53.48 355.88 56.46 355.93 59.44 C 362.21 55.65 368.43 51.37 375.78 49.95 Z" />
<path fill="#444444" d=" M 425.81 61.87 C 433.17 52.01 446.30 49.03 457.99 49.01 C 469.92 49.08 483.29 52.23 490.68 62.39 C 494.49 67.01 495.75 73.11 495.74 78.96 C 495.76 93.98 495.75 108.99 495.73 124.01 C 495.82 125.88 495.64 128.25 497.37 129.48 C 500.06 131.84 503.83 131.10 507.01 130.46 C 506.99 136.00 507.01 141.53 507.00 147.06 C 495.05 151.39 479.69 150.95 470.32 141.40 C 464.67 145.52 457.98 148.29 450.93 148.49 C 440.84 149.20 429.65 147.19 422.37 139.63 C 416.00 133.14 414.73 122.94 417.42 114.52 C 420.39 104.57 428.53 96.85 437.93 92.85 C 447.10 89.25 456.88 87.48 466.41 85.08 C 466.37 79.79 466.29 74.15 463.64 69.40 C 462.14 66.65 458.83 65.83 455.92 65.78 C 451.70 65.63 446.83 66.38 444.09 69.94 C 441.51 73.26 441.77 77.67 441.72 81.63 C 434.60 81.63 427.48 81.61 420.37 81.64 C 420.33 74.73 421.31 67.40 425.81 61.87 Z" />
<path fill="#444444" d=" M 574.80 49.93 C 582.41 48.52 590.86 48.32 597.80 52.27 C 603.52 55.69 606.12 62.45 606.81 68.80 C 607.40 75.52 607.02 82.27 607.13 89.00 C 599.02 89.00 590.91 89.00 582.80 88.99 C 582.66 84.20 583.00 79.38 582.56 74.60 C 582.30 71.76 579.84 69.55 577.07 69.25 C 569.54 68.07 562.28 71.51 556.25 75.70 C 556.30 93.84 556.29 111.98 556.25 130.12 C 560.91 130.12 565.58 130.12 570.25 130.13 C 570.25 135.75 570.25 141.37 570.25 147.00 C 552.04 147.00 533.83 147.00 515.62 147.00 C 515.62 141.37 515.61 135.75 515.62 130.12 C 519.41 130.12 523.20 130.12 527.00 130.12 C 527.00 109.21 527.01 88.29 526.99 67.38 C 523.20 67.38 519.41 67.38 515.63 67.37 C 515.61 61.75 515.62 56.13 515.62 50.51 C 528.71 50.50 541.79 50.50 554.88 50.50 C 554.87 53.48 554.86 56.45 554.92 59.42 C 561.19 55.61 567.44 51.36 574.80 49.93 Z" />
<path fill="#444444" d=" M 617.00 50.50 C 630.54 50.50 644.08 50.51 657.62 50.50 C 657.63 77.04 657.68 103.58 657.63 130.12 C 661.46 130.12 665.29 130.12 669.13 130.13 C 669.13 135.75 669.13 141.37 669.13 147.00 C 651.75 147.00 634.38 147.00 617.00 147.00 C 617.00 141.37 616.99 135.75 617.00 130.12 C 620.79 130.12 624.58 130.12 628.37 130.12 C 628.44 109.21 628.39 88.30 628.38 67.39 C 624.58 67.38 620.79 67.38 617.00 67.38 C 617.00 61.75 617.00 56.13 617.00 50.50 Z" />
<path fill="#ffffff" d=" M 151.59 70.59 C 156.07 64.87 165.68 65.53 170.26 70.79 C 174.51 75.40 174.71 82.09 175.02 88.00 C 165.57 87.99 156.12 88.01 146.67 87.99 C 147.38 82.03 147.80 75.54 151.59 70.59 Z" />
<path fill="#ffffff" d=" M 448.50 107.76 C 453.36 103.14 460.28 102.16 466.37 100.02 C 466.42 109.60 466.41 119.19 466.39 128.78 C 461.71 131.52 455.86 131.53 450.77 130.10 C 446.91 129.01 445.56 124.69 445.41 121.11 C 445.20 116.56 445.12 111.28 448.50 107.76 Z" />
</svg>
